<svg xmlns="http://www.w3.org/2000/svg" xmlns:xlink="http://www.w3.org/1999/xlink" width="500" zoomAndPan="magnify" viewBox="0 0 375 374.999991" height="500" preserveAspectRatio="xMidYMid meet" version="1.0"><defs><g/></defs><g fill="#242424" fill-opacity="1"><g transform="translate(7.619598, 197.763818)"><g><path d="M 21.84375 -1.472656 C 23.226562 -0.9375 24.65625 -0.714844 26.132812 -0.9375 C 26.398438 -0.984375 26.84375 -0.984375 26.84375 -1.296875 C 26.84375 -1.699219 26.398438 -1.5625 26.175781 -1.609375 C 26.085938 -1.609375 26.042969 -1.609375 25.996094 -1.609375 C 23.898438 -1.519531 22.109375 -2.410156 20.457031 -3.617188 C 15.902344 -6.921875 12.195312 -11.03125 9.605469 -16.082031 C 6.386719 -22.46875 6.253906 -28.898438 9.246094 -35.378906 C 11.925781 -41.183594 15.992188 -45.828125 21.261719 -49.449219 C 24.074219 -51.367188 27.070312 -52.84375 30.464844 -53.421875 C 33.992188 -53.960938 36.71875 -52.796875 38.773438 -49.894531 C 39.800781 -48.375 40.558594 -46.765625 41.09375 -45.027344 C 42.703125 -39.398438 42.300781 -33.722656 40.960938 -28.140625 C 38.414062 -17.421875 34.171875 -7.371094 28.945312 2.324219 C 28.722656 2.726562 28.453125 3.039062 28.007812 3.261719 C 26.621094 3.976562 25.28125 4.78125 24.03125 5.71875 C 20.859375 7.996094 17.910156 10.496094 15.679688 13.714844 C 14.742188 15.097656 13.9375 16.570312 13.890625 18.3125 C 13.890625 19.386719 14.292969 19.832031 15.320312 20.054688 C 16.394531 20.28125 17.375 20.011719 18.3125 19.476562 C 19.519531 18.804688 20.503906 17.824219 21.441406 16.839844 C 25.191406 12.820312 27.917969 8.175781 30.597656 3.4375 C 30.777344 3.082031 31.042969 2.8125 31.402344 2.636719 C 34.664062 1.207031 37.878906 -0.179688 41.183594 -1.472656 C 41.40625 -1.5625 41.945312 -1.5625 41.808594 -1.964844 C 41.71875 -2.277344 41.273438 -2.1875 40.960938 -2.097656 C 40.601562 -2.054688 40.246094 -1.921875 39.933594 -1.785156 C 37.519531 -0.984375 35.199219 0 32.875 0.984375 C 32.5625 1.117188 32.25 1.339844 31.757812 1.339844 C 31.9375 0.984375 32.070312 0.625 32.25 0.3125 C 35.691406 -6.386719 38.816406 -13.265625 41.050781 -20.503906 C 42.925781 -26.488281 44.488281 -32.519531 44.085938 -38.90625 C 43.863281 -42.613281 43.148438 -46.140625 41.140625 -49.3125 C 39.175781 -52.441406 36.449219 -54.273438 32.652344 -54.359375 C 29.035156 -54.449219 25.730469 -53.421875 22.691406 -51.636719 C 15.945312 -47.792969 11.03125 -42.300781 7.816406 -35.289062 C 4.734375 -28.5 4.957031 -21.753906 8.441406 -15.1875 C 10.898438 -10.632812 14.160156 -6.789062 18.222656 -3.617188 C 19.339844 -2.769531 20.546875 -2.011719 21.84375 -1.472656 Z M 24.746094 9.515625 C 22.914062 12.507812 20.859375 15.367188 18.269531 17.777344 C 17.6875 18.3125 17.109375 18.804688 16.394531 19.164062 C 15.679688 19.519531 15.320312 19.339844 15.277344 18.539062 C 15.230469 17.777344 15.410156 17.0625 15.679688 16.394531 C 16.214844 15.054688 17.019531 13.847656 17.910156 12.730469 C 20.546875 9.425781 23.808594 6.835938 27.558594 4.78125 C 26.621094 6.34375 25.683594 7.949219 24.746094 9.515625 Z M 24.746094 9.515625 "/></g></g></g><g fill="#242424" fill-opacity="1"><g transform="translate(56.68811, 197.763818)"><g><path d="M 8.578125 1.832031 C 12.773438 0.269531 21.441406 -6.34375 29.792969 -7.460938 C 29.527344 -8.039062 29.125 -8.039062 28.765625 -8.039062 C 21.484375 -7.234375 11.925781 -0.9375 9.113281 0.402344 C 7.863281 0.984375 6.566406 1.382812 5.136719 1.519531 C 4.109375 1.609375 3.171875 1.382812 2.457031 0.535156 C 0.757812 -1.652344 0.625 -3.929688 1.742188 -6.386719 C 1.964844 -6.878906 2.234375 -7.148438 2.859375 -6.96875 C 3.707031 -6.746094 4.554688 -6.789062 5.40625 -7.058594 C 7.148438 -7.636719 8.578125 -8.710938 9.871094 -9.960938 C 10.09375 -10.183594 10.230469 -10.40625 10.363281 -10.675781 C 10.71875 -11.390625 10.585938 -12.105469 9.917969 -12.597656 C 8.84375 -13.355469 7.683594 -13.800781 6.386719 -13.402344 C 3.039062 -12.417969 0.492188 -10.453125 -0.757812 -7.101562 C -1.519531 -5.046875 -1.296875 -3.082031 -0.222656 -1.296875 C 1.964844 2.277344 4.554688 3.351562 8.578125 1.832031 Z M 8.488281 -11.703125 C 7.949219 -10.050781 5.046875 -8.21875 3.261719 -8.398438 C 3.976562 -9.960938 6.878906 -11.792969 8.488281 -11.703125 Z M 8.488281 -11.703125 "/></g></g></g><g fill="#242424" fill-opacity="1"><g transform="translate(87.138579, 197.763818)"><g><path d="M 5.269531 4.511719 C 5.136719 4.824219 4.867188 5.179688 5.179688 5.496094 C 5.496094 5.851562 5.894531 5.761719 6.34375 5.671875 C 6.65625 5.628906 6.878906 5.40625 7.058594 5.179688 C 7.773438 4.289062 8.488281 3.4375 8.84375 2.367188 C 8.976562 1.964844 9.246094 1.652344 9.515625 1.339844 C 11.703125 -0.757812 13.890625 -2.859375 16.394531 -4.644531 C 16.570312 -4.78125 16.882812 -4.867188 16.75 -5.179688 C 16.617188 -5.449219 16.257812 -5.449219 15.992188 -5.359375 C 15.722656 -5.226562 15.457031 -5.09375 15.1875 -4.914062 C 14.203125 -4.289062 13.265625 -3.574219 12.375 -2.8125 C 11.433594 -2.011719 10.496094 -1.207031 9.46875 -0.3125 C 8.488281 -2.234375 7.460938 -2.769531 5.40625 -2.546875 C 5.09375 -2.546875 4.78125 -2.457031 4.46875 -2.410156 C 3.929688 -2.234375 3.4375 -2.097656 2.902344 -1.921875 C 2.144531 -1.699219 1.382812 -1.429688 0.625 -1.207031 C 0 -1.070312 -0.132812 -1.25 -0.179688 -1.832031 C -0.179688 -2.410156 -0.0429688 -2.949219 0.132812 -3.4375 C 0.757812 -5.09375 1.519531 -6.65625 2.546875 -8.039062 C 3.484375 -9.289062 4.46875 -10.453125 5.941406 -11.167969 C 6.921875 -11.613281 7.371094 -11.480469 7.90625 -10.542969 C 8.21875 -9.917969 8.261719 -9.246094 8.175781 -8.53125 C 8.085938 -7.773438 8.53125 -7.371094 9.203125 -7.503906 C 9.648438 -7.59375 9.828125 -7.949219 9.871094 -8.308594 C 10.183594 -10.453125 9.691406 -12.015625 7.234375 -12.597656 C 5.808594 -12.910156 4.421875 -12.597656 3.171875 -11.882812 C 1.964844 -11.167969 0.984375 -10.183594 0.132812 -9.066406 C -1.117188 -7.324219 -2.054688 -5.449219 -2.679688 -3.4375 C -3.171875 -1.742188 -2.457031 -0.582031 -0.757812 -0.179688 C -0.671875 -0.179688 -0.535156 -0.179688 -0.445312 -0.132812 C 0.671875 0.0898438 1.742188 -0.132812 2.8125 -0.492188 C 3.839844 -0.847656 4.914062 -1.117188 6.03125 -1.382812 C 6.433594 -1.472656 6.746094 -1.339844 6.96875 -0.9375 C 7.59375 0.0898438 7.460938 1.699219 6.566406 2.546875 C 5.941406 3.125 5.539062 3.753906 5.269531 4.511719 Z M 5.269531 4.511719 "/></g></g></g><g fill="#242424" fill-opacity="1"><g transform="translate(105.757447, 197.763818)"><g><path d="M 15.367188 -14.070312 C 14.605469 -14.515625 14.070312 -14.5625 13.355469 -14.027344 C 11.257812 -12.375 9.378906 -10.496094 7.636719 -8.488281 C 6.476562 -7.101562 5.582031 -5.539062 4.421875 -4.152344 C 3.574219 -3.171875 2.8125 -2.1875 1.832031 -1.339844 C 1.25 -0.894531 1.117188 -0.984375 0.984375 -1.699219 C 0.9375 -2.234375 0.9375 -2.726562 1.027344 -3.261719 C 1.339844 -5.09375 1.921875 -6.789062 2.769531 -8.441406 C 3.304688 -9.46875 3.929688 -10.40625 4.46875 -11.390625 C 4.914062 -12.148438 4.734375 -12.460938 3.886719 -12.597656 C 3.171875 -12.6875 2.546875 -12.507812 2.011719 -11.925781 C 0.0429688 -9.78125 -0.9375 -7.234375 -1.339844 -4.378906 C -1.472656 -3.664062 -1.429688 -2.949219 -1.296875 -2.234375 C -1.027344 -0.894531 -0.132812 -0.132812 1.25 -0.0898438 C 1.964844 -0.0429688 2.589844 -0.269531 3.171875 -0.757812 C 3.886719 -1.382812 4.511719 -2.144531 5.226562 -2.949219 C 5.269531 -2.726562 5.316406 -2.679688 5.269531 -2.589844 C 5.179688 -2.324219 5.09375 -2.097656 5.003906 -1.832031 C 3.976562 0.757812 3.261719 3.4375 3.125 6.207031 C 2.992188 8.21875 3.261719 10.140625 4.199219 11.925781 C 4.644531 12.730469 5.179688 13.402344 6.03125 13.714844 C 6.207031 13.800781 6.433594 13.980469 6.566406 13.757812 C 6.746094 13.535156 6.566406 13.355469 6.386719 13.222656 C 5.761719 12.773438 5.582031 12.058594 5.359375 11.347656 C 4.734375 9.246094 4.78125 7.148438 5.179688 5.003906 C 5.941406 1.207031 7.414062 -2.277344 9.335938 -5.582031 C 10.988281 -8.441406 12.910156 -11.078125 15.367188 -13.3125 C 15.722656 -13.625 15.769531 -13.800781 15.367188 -14.070312 Z M 9.289062 -17.421875 C 9.46875 -17.375 9.78125 -17.511719 10.050781 -17.777344 C 11.167969 -18.984375 12.285156 -20.144531 13.625 -21.082031 C 14.113281 -21.441406 13.980469 -21.753906 13.445312 -21.933594 C 12.730469 -22.15625 12.105469 -21.933594 11.570312 -21.53125 C 10.40625 -20.679688 9.46875 -19.699219 8.53125 -18.671875 C 8.308594 -18.449219 7.996094 -18.179688 8.128906 -17.867188 C 8.261719 -17.511719 8.710938 -17.464844 9.289062 -17.421875 Z M 9.289062 -17.421875 "/></g></g></g><g fill="#242424" fill-opacity="1"><g transform="translate(124.733488, 197.763818)"><g><path d="M 5.269531 4.511719 C 5.136719 4.824219 4.867188 5.179688 5.179688 5.496094 C 5.496094 5.851562 5.894531 5.761719 6.34375 5.671875 C 6.65625 5.628906 6.878906 5.40625 7.058594 5.179688 C 7.773438 4.289062 8.488281 3.4375 8.84375 2.367188 C 8.976562 1.964844 9.246094 1.652344 9.515625 1.339844 C 11.703125 -0.757812 13.890625 -2.859375 16.394531 -4.644531 C 16.570312 -4.78125 16.882812 -4.867188 16.75 -5.179688 C 16.617188 -5.449219 16.257812 -5.449219 15.992188 -5.359375 C 15.722656 -5.226562 15.457031 -5.09375 15.1875 -4.914062 C 14.203125 -4.289062 13.265625 -3.574219 12.375 -2.8125 C 11.433594 -2.011719 10.496094 -1.207031 9.46875 -0.3125 C 8.488281 -2.234375 7.460938 -2.769531 5.40625 -2.546875 C 5.09375 -2.546875 4.78125 -2.457031 4.46875 -2.410156 C 3.929688 -2.234375 3.4375 -2.097656 2.902344 -1.921875 C 2.144531 -1.699219 1.382812 -1.429688 0.625 -1.207031 C 0 -1.070312 -0.132812 -1.25 -0.179688 -1.832031 C -0.179688 -2.410156 -0.0429688 -2.949219 0.132812 -3.4375 C 0.757812 -5.09375 1.519531 -6.65625 2.546875 -8.039062 C 3.484375 -9.289062 4.46875 -10.453125 5.941406 -11.167969 C 6.921875 -11.613281 7.371094 -11.480469 7.90625 -10.542969 C 8.21875 -9.917969 8.261719 -9.246094 8.175781 -8.53125 C 8.085938 -7.773438 8.53125 -7.371094 9.203125 -7.503906 C 9.648438 -7.59375 9.828125 -7.949219 9.871094 -8.308594 C 10.183594 -10.453125 9.691406 -12.015625 7.234375 -12.597656 C 5.808594 -12.910156 4.421875 -12.597656 3.171875 -11.882812 C 1.964844 -11.167969 0.984375 -10.183594 0.132812 -9.066406 C -1.117188 -7.324219 -2.054688 -5.449219 -2.679688 -3.4375 C -3.171875 -1.742188 -2.457031 -0.582031 -0.757812 -0.179688 C -0.671875 -0.179688 -0.535156 -0.179688 -0.445312 -0.132812 C 0.671875 0.0898438 1.742188 -0.132812 2.8125 -0.492188 C 3.839844 -0.847656 4.914062 -1.117188 6.03125 -1.382812 C 6.433594 -1.472656 6.746094 -1.339844 6.96875 -0.9375 C 7.59375 0.0898438 7.460938 1.699219 6.566406 2.546875 C 5.941406 3.125 5.539062 3.753906 5.269531 4.511719 Z M 5.269531 4.511719 "/></g></g></g><g fill="#242424" fill-opacity="1"><g transform="translate(143.352346, 197.763818)"><g/></g></g><g fill="#242424" fill-opacity="1"><g transform="translate(162.551635, 197.763818)"><g><path d="M 5.269531 2.5 C 3.886719 2.726562 2.636719 3.304688 1.652344 4.332031 C 0.671875 5.359375 0.757812 6.476562 1.921875 7.371094 C 2.457031 7.773438 3.082031 8.039062 3.707031 8.21875 C 5.269531 8.621094 6.789062 8.53125 8.308594 8.128906 C 11.078125 7.460938 13.445312 5.984375 15.679688 4.289062 C 16.035156 4.019531 16.394531 3.929688 16.839844 4.066406 C 18 4.378906 19.164062 4.691406 20.324219 5.003906 C 24.878906 6.121094 29.4375 7.101562 34.171875 6.699219 C 36.628906 6.523438 39.085938 6.03125 41.496094 5.496094 C 46.992188 4.289062 51.726562 1.699219 55.703125 -2.277344 C 57.085938 -3.664062 58.292969 -5.269531 59.722656 -6.609375 C 59.855469 -6.746094 60.167969 -6.921875 59.945312 -7.148438 C 59.765625 -7.414062 59.410156 -7.414062 59.140625 -7.191406 C 58.828125 -6.96875 58.558594 -6.746094 58.292969 -6.476562 C 56.59375 -4.78125 54.71875 -3.351562 52.886719 -1.875 C 49.222656 1.027344 45.113281 3.125 40.558594 4.199219 C 36.761719 5.136719 32.875 5.941406 28.898438 5.496094 C 25.816406 5.179688 22.824219 4.601562 19.878906 3.796875 C 19.027344 3.574219 18.222656 3.351562 17.242188 3.082031 C 19.652344 1.160156 21.707031 -0.9375 23.585938 -3.125 C 28.898438 -9.378906 33.410156 -16.214844 37.34375 -23.40625 C 40.601562 -29.4375 44.175781 -35.289062 48.421875 -40.691406 C 49.671875 -42.300781 51.011719 -43.863281 52.394531 -45.5625 C 52.441406 -45.113281 52.21875 -44.9375 52.082031 -44.667969 C 51.414062 -43.285156 50.652344 -41.898438 50.296875 -40.335938 C 50.207031 -40.15625 50.117188 -39.886719 50.429688 -39.800781 C 50.699219 -39.710938 50.921875 -39.710938 51.054688 -39.976562 C 51.324219 -40.515625 51.636719 -41.003906 51.90625 -41.496094 C 53.511719 -44.578125 55.164062 -47.617188 57.355469 -50.296875 C 57.578125 -50.519531 58.070312 -50.742188 57.800781 -51.144531 C 57.578125 -51.503906 57.085938 -51.503906 56.683594 -51.503906 C 56.148438 -51.503906 55.835938 -51.191406 55.523438 -50.832031 C 54.808594 -50.074219 53.960938 -49.402344 53.199219 -48.734375 C 52.394531 -48.0625 51.636719 -47.304688 50.921875 -46.542969 C 45.5625 -40.601562 41.183594 -33.949219 37.207031 -26.980469 C 33.410156 -20.367188 29.390625 -13.890625 24.523438 -7.996094 C 21.707031 -4.511719 18.894531 -1.027344 15.5 1.964844 C 15.007812 2.410156 14.5625 2.546875 13.890625 2.457031 C 11.03125 1.964844 8.128906 1.964844 5.269531 2.5 Z M 13.085938 3.304688 C 13.222656 3.351562 13.355469 3.394531 13.625 3.4375 C 11.257812 5.179688 8.933594 6.609375 6.207031 7.234375 C 5.449219 7.371094 4.691406 7.503906 3.929688 7.148438 C 2.949219 6.65625 2.769531 5.808594 3.527344 4.957031 C 4.289062 4.152344 5.269531 3.707031 6.34375 3.484375 C 8.578125 3.125 10.855469 3.039062 13.085938 3.304688 Z M 13.085938 3.304688 "/></g></g></g><g fill="#242424" fill-opacity="1"><g transform="translate(221.621187, 197.763818)"><g><path d="M 3.574219 -10.765625 C 2.992188 -11.257812 2.5 -11.257812 1.921875 -10.71875 C 1.699219 -10.496094 1.472656 -10.273438 1.25 -10.050781 C -1.472656 -6.386719 -3.617188 -2.5 -4.066406 2.144531 C -4.242188 3.351562 -4.199219 4.554688 -3.929688 5.761719 C -3.707031 6.699219 -3.304688 7.636719 -2.679688 8.441406 C -1.429688 9.917969 -0.0429688 10.09375 1.5625 9.066406 C 1.832031 8.890625 2.097656 8.621094 2.367188 8.398438 C 4.644531 6.476562 6.65625 4.289062 8.710938 2.144531 C 11.210938 -0.492188 13.9375 -2.726562 17.242188 -4.332031 C 19.117188 -5.226562 20.90625 -6.207031 22.871094 -6.921875 C 23.046875 -6.96875 23.226562 -7.011719 23.183594 -7.234375 C 23.183594 -7.414062 23.003906 -7.503906 22.824219 -7.503906 C 22.46875 -7.550781 22.199219 -7.414062 21.933594 -7.28125 C 20.90625 -6.835938 19.878906 -6.386719 18.894531 -5.894531 C 16.929688 -4.957031 14.875 -4.109375 13 -2.902344 C 10.273438 -1.25 7.949219 0.9375 5.761719 3.261719 C 4.511719 4.511719 3.394531 5.894531 1.921875 6.878906 C 1.070312 7.460938 0.269531 8.039062 -0.804688 8.085938 C -1.609375 8.128906 -1.832031 7.949219 -2.011719 7.191406 C -2.234375 6.253906 -2.234375 5.316406 -2.144531 4.378906 C -1.785156 0.894531 -0.445312 -2.277344 1.339844 -5.269531 C 2.144531 -6.609375 2.992188 -7.816406 3.796875 -9.113281 C 4.199219 -9.78125 4.109375 -10.316406 3.574219 -10.765625 Z M 5.628906 -12.953125 C 6.03125 -12.820312 6.296875 -13.085938 6.253906 -13.488281 C 6.253906 -14.160156 5.496094 -14.828125 4.734375 -14.917969 C 4.332031 -14.964844 4.109375 -14.695312 4.242188 -14.292969 C 4.46875 -13.625 5.003906 -13.175781 5.628906 -12.953125 Z M 5.628906 -12.953125 "/></g></g></g><g fill="#242424" fill-opacity="1"><g transform="translate(245.50846, 197.763818)"><g><path d="M 28.8125 -8.441406 C 28.632812 -8.441406 28.453125 -8.351562 28.320312 -8.308594 C 26.578125 -7.460938 24.835938 -6.566406 23.183594 -5.582031 C 20.859375 -4.152344 18.539062 -2.726562 16.035156 -1.519531 C 14.785156 -0.9375 13.488281 -0.269531 12.105469 -0.0429688 C 10.632812 0.179688 10.316406 -0.132812 10.453125 -1.5625 C 10.453125 -1.652344 10.453125 -1.785156 10.453125 -1.875 C 10.632812 -2.992188 10.988281 -4.019531 11.480469 -5.003906 C 12.148438 -6.433594 12.863281 -7.816406 13.578125 -9.203125 C 13.9375 -9.917969 14.203125 -10.632812 14.429688 -11.390625 C 14.695312 -12.417969 14.292969 -13.222656 13.535156 -13.890625 C 12.773438 -14.515625 12.058594 -14.25 11.347656 -13.847656 C 10.542969 -13.402344 9.871094 -12.820312 9.203125 -12.195312 C 6.789062 -10.050781 4.511719 -7.773438 2.277344 -5.496094 C 1.875 -5.046875 1.472656 -4.644531 0.757812 -4.46875 C 0.804688 -5.09375 1.027344 -5.582031 1.25 -6.074219 C 1.832031 -7.371094 2.589844 -8.578125 3.394531 -9.738281 C 4.152344 -10.71875 3.929688 -11.613281 2.949219 -12.238281 C 2.5 -12.507812 2.144531 -12.507812 1.785156 -12.148438 C -0.0898438 -10.316406 -1.25 -8.175781 -1.160156 -5.449219 C -1.117188 -4.601562 -0.804688 -3.886719 -0.269531 -3.261719 C 0.355469 -2.546875 0.9375 -2.457031 1.699219 -3.039062 C 2.011719 -3.261719 2.324219 -3.484375 2.589844 -3.753906 C 4.78125 -5.941406 6.835938 -8.308594 9.203125 -10.316406 C 10.183594 -11.167969 11.121094 -11.972656 12.597656 -12.460938 C 12.015625 -11.03125 11.257812 -9.917969 10.585938 -8.800781 C 9.335938 -6.65625 8.800781 -4.378906 9.023438 -1.964844 C 9.203125 0.0898438 10.765625 1.921875 13.402344 0.984375 C 14.875 0.445312 16.304688 -0.179688 17.644531 -0.9375 C 20.234375 -2.324219 22.648438 -3.886719 25.148438 -5.359375 C 26.445312 -6.074219 27.695312 -6.789062 28.945312 -7.503906 C 29.125 -7.636719 29.4375 -7.683594 29.347656 -8.039062 C 29.257812 -8.261719 29.078125 -8.441406 28.8125 -8.441406 Z M 28.8125 -8.441406 "/></g></g></g><g fill="#242424" fill-opacity="1"><g transform="translate(274.976685, 197.763818)"><g><path d="M 3.125 -1.429688 C 3.214844 -0.492188 3.351562 0.445312 3.796875 1.296875 C 5.316406 4.152344 8.351562 4.78125 10.898438 3.707031 C 16.035156 1.519531 25.683594 -6.921875 31.222656 -7.59375 C 31.179688 -7.773438 31.179688 -7.863281 31.132812 -7.90625 C 29.613281 -9.605469 15.902344 -0.179688 11.390625 2.011719 C 10.230469 2.589844 9.066406 3.082031 7.726562 3.082031 C 7.058594 3.039062 6.609375 2.769531 6.34375 2.144531 C 6.074219 1.519531 5.941406 0.847656 5.941406 0.132812 C 5.894531 -1.472656 6.207031 -2.992188 6.835938 -4.511719 C 7.324219 -5.761719 8.085938 -6.878906 8.753906 -8.039062 C 9.246094 -8.976562 9.15625 -9.289062 8.21875 -9.738281 C 7.949219 -9.871094 7.683594 -10.050781 7.414062 -9.960938 C 6.921875 -9.78125 6.65625 -10.050781 6.296875 -10.273438 C 4.957031 -11.03125 3.617188 -11.210938 2.277344 -10.363281 C -0.9375 -8.351562 -2.410156 -5.316406 -2.324219 -1.609375 C -2.324219 -0.355469 -0.894531 0.355469 0.269531 -0.179688 C 0.714844 -0.402344 1.117188 -0.714844 1.429688 -1.070312 C 1.921875 -1.519531 2.410156 -2.011719 2.949219 -2.546875 C 3.125 -2.097656 3.082031 -1.742188 3.125 -1.429688 Z M 0.625 -1.964844 C 0.3125 -1.699219 -0.0429688 -1.472656 -0.535156 -1.117188 C -0.535156 -2.097656 -0.355469 -2.8125 -0.0898438 -3.4375 C 0.714844 -5.496094 1.875 -7.234375 3.574219 -8.664062 C 3.886719 -8.933594 4.289062 -9.113281 4.644531 -9.335938 C 4.867188 -9.46875 5.179688 -9.515625 5.359375 -9.203125 C 5.539062 -8.933594 5.71875 -8.710938 5.496094 -8.351562 C 4.066406 -6.074219 2.679688 -3.753906 0.625 -1.964844 Z M 0.625 -1.964844 "/></g></g></g><g fill="#242424" fill-opacity="1"><g transform="translate(306.454052, 197.763818)"><g><path d="M -3.261719 14.160156 C -2.1875 14.25 0 13.3125 0.894531 12.375 C 1.027344 12.238281 1.339844 12.058594 1.117188 11.835938 C 0.894531 11.570312 0.625 11.703125 0.445312 11.882812 C -0.269531 12.507812 -1.070312 12.910156 -1.921875 13.265625 C -4.019531 14.203125 -5.226562 13.402344 -5.179688 11.078125 C -5.179688 9.515625 -4.644531 8.039062 -3.976562 6.609375 C -2.636719 3.753906 -0.847656 1.207031 0.847656 -1.382812 C 1.429688 -2.324219 1.964844 -3.261719 2.277344 -4.332031 C 2.457031 -4.914062 2.679688 -5.671875 2.234375 -6.074219 C 1.296875 -7.011719 1.785156 -7.636719 2.546875 -8.308594 C 2.726562 -8.441406 2.8125 -8.710938 2.902344 -8.976562 C 2.992188 -9.246094 2.992188 -9.515625 2.769531 -9.691406 C 2.324219 -10.230469 1.742188 -10.496094 1.027344 -10.363281 C 0.179688 -10.183594 -0.445312 -9.691406 -0.671875 -8.800781 C -0.847656 -8.085938 -0.625 -7.324219 -0.0429688 -6.921875 C 0.445312 -6.609375 0.492188 -6.253906 0.402344 -5.808594 C 0.3125 -4.957031 0 -4.199219 -0.445312 -3.484375 C -1.160156 -2.324219 -1.875 -1.160156 -2.589844 -0.0429688 C -3.886719 1.964844 -5.09375 3.976562 -5.941406 6.164062 C -6.609375 8.039062 -6.878906 9.917969 -6.253906 11.882812 C -5.851562 13.132812 -4.554688 14.113281 -3.261719 14.160156 Z M -3.261719 14.160156 "/></g></g></g><g fill="#242424" fill-opacity="1"><g transform="translate(319.625914, 197.763818)"><g><path d="M 8.578125 1.832031 C 12.773438 0.269531 21.441406 -6.34375 29.792969 -7.460938 C 29.527344 -8.039062 29.125 -8.039062 28.765625 -8.039062 C 21.484375 -7.234375 11.925781 -0.9375 9.113281 0.402344 C 7.863281 0.984375 6.566406 1.382812 5.136719 1.519531 C 4.109375 1.609375 3.171875 1.382812 2.457031 0.535156 C 0.757812 -1.652344 0.625 -3.929688 1.742188 -6.386719 C 1.964844 -6.878906 2.234375 -7.148438 2.859375 -6.96875 C 3.707031 -6.746094 4.554688 -6.789062 5.40625 -7.058594 C 7.148438 -7.636719 8.578125 -8.710938 9.871094 -9.960938 C 10.09375 -10.183594 10.230469 -10.40625 10.363281 -10.675781 C 10.71875 -11.390625 10.585938 -12.105469 9.917969 -12.597656 C 8.84375 -13.355469 7.683594 -13.800781 6.386719 -13.402344 C 3.039062 -12.417969 0.492188 -10.453125 -0.757812 -7.101562 C -1.519531 -5.046875 -1.296875 -3.082031 -0.222656 -1.296875 C 1.964844 2.277344 4.554688 3.351562 8.578125 1.832031 Z M 8.488281 -11.703125 C 7.949219 -10.050781 5.046875 -8.21875 3.261719 -8.398438 C 3.976562 -9.960938 6.878906 -11.792969 8.488281 -11.703125 Z M 8.488281 -11.703125 "/></g></g></g><g fill="#242424" fill-opacity="1"><g transform="translate(350.076378, 197.763818)"><g><path d="M 5.269531 4.511719 C 5.136719 4.824219 4.867188 5.179688 5.179688 5.496094 C 5.496094 5.851562 5.894531 5.761719 6.34375 5.671875 C 6.65625 5.628906 6.878906 5.40625 7.058594 5.179688 C 7.773438 4.289062 8.488281 3.4375 8.84375 2.367188 C 8.976562 1.964844 9.246094 1.652344 9.515625 1.339844 C 11.703125 -0.757812 13.890625 -2.859375 16.394531 -4.644531 C 16.570312 -4.78125 16.882812 -4.867188 16.75 -5.179688 C 16.617188 -5.449219 16.257812 -5.449219 15.992188 -5.359375 C 15.722656 -5.226562 15.457031 -5.09375 15.1875 -4.914062 C 14.203125 -4.289062 13.265625 -3.574219 12.375 -2.8125 C 11.433594 -2.011719 10.496094 -1.207031 9.46875 -0.3125 C 8.488281 -2.234375 7.460938 -2.769531 5.40625 -2.546875 C 5.09375 -2.546875 4.78125 -2.457031 4.46875 -2.410156 C 3.929688 -2.234375 3.4375 -2.097656 2.902344 -1.921875 C 2.144531 -1.699219 1.382812 -1.429688 0.625 -1.207031 C 0 -1.070312 -0.132812 -1.25 -0.179688 -1.832031 C -0.179688 -2.410156 -0.0429688 -2.949219 0.132812 -3.4375 C 0.757812 -5.09375 1.519531 -6.65625 2.546875 -8.039062 C 3.484375 -9.289062 4.46875 -10.453125 5.941406 -11.167969 C 6.921875 -11.613281 7.371094 -11.480469 7.90625 -10.542969 C 8.21875 -9.917969 8.261719 -9.246094 8.175781 -8.53125 C 8.085938 -7.773438 8.53125 -7.371094 9.203125 -7.503906 C 9.648438 -7.59375 9.828125 -7.949219 9.871094 -8.308594 C 10.183594 -10.453125 9.691406 -12.015625 7.234375 -12.597656 C 5.808594 -12.910156 4.421875 -12.597656 3.171875 -11.882812 C 1.964844 -11.167969 0.984375 -10.183594 0.132812 -9.066406 C -1.117188 -7.324219 -2.054688 -5.449219 -2.679688 -3.4375 C -3.171875 -1.742188 -2.457031 -0.582031 -0.757812 -0.179688 C -0.671875 -0.179688 -0.535156 -0.179688 -0.445312 -0.132812 C 0.671875 0.0898438 1.742188 -0.132812 2.8125 -0.492188 C 3.839844 -0.847656 4.914062 -1.117188 6.03125 -1.382812 C 6.433594 -1.472656 6.746094 -1.339844 6.96875 -0.9375 C 7.59375 0.0898438 7.460938 1.699219 6.566406 2.546875 C 5.941406 3.125 5.539062 3.753906 5.269531 4.511719 Z M 5.269531 4.511719 "/></g></g></g></svg>